<svg id="Layer_1" data-name="Layer 1" xmlns="http://www.w3.org/2000/svg" viewBox="0 0 30 30"><title>Heartsteps-activity-icons</title><path id="Fill-3" d="M15.22,3.79a1.53,1.53,0,0,0-1.56,1.5,1.56,1.56,0,0,0,3.11,0,1.53,1.53,0,0,0-1.55-1.5m0,4.19a2.75,2.75,0,0,1-2.79-2.69,2.79,2.79,0,0,1,5.57,0A2.74,2.74,0,0,1,15.22,8" style="fill:#4a4a4a;fill-rule:evenodd"/><path d="M12.21,12.13a1.37,1.37,0,0,0-.66.54L8.76,16.06a1.31,1.31,0,0,1-1.93.39l-.07-.07a1.29,1.29,0,0,1,0-1.87l3.78-4.36a1.71,1.71,0,0,1,.67-.49l1-.4a1,1,0,0,1,.52-.08l4.41.45a1.44,1.44,0,0,1,.79.34L20.32,12a1.51,1.51,0,0,0,.85.36l2.47.17A1.24,1.24,0,0,1,24.74,14h0A1.23,1.23,0,0,1,23.4,15l-2.95-.22a1.49,1.49,0,0,1-.85-.37l-1.54-1.32a.27.27,0,0,0-.44.23L17.75,18a1,1,0,0,0,.21.57l3.71,4.6a1.26,1.26,0,0,1,.14,1.27L20,28.25a1.25,1.25,0,0,1-1.57.62h0a1.28,1.28,0,0,1-.69-1.74l1.35-2.81a.34.34,0,0,0,0-.36s-3.72-4.44-4-4.31-.35.6-.43.8c-.2.54-1,2.78-1,2.78A5.38,5.38,0,0,1,13,24.38l-2.44,3a1.46,1.46,0,0,1-2,0l.11.09a1.39,1.39,0,0,1-.23-1.88l2-2.3a4.75,4.75,0,0,0,.89-1.52l1.26-3.16a1.18,1.18,0,0,0,.1-.45s0-5.21,0-5.93C12.7,12,12.44,12.05,12.21,12.13Z" style="fill:none;stroke:#4a4a4a;stroke-miterlimit:10;stroke-width:1.2000000476837158px;fill-rule:evenodd"/></svg>