<svg id="Layer_1" data-name="Layer 1" xmlns="http://www.w3.org/2000/svg" viewBox="0 0 30 30"><title>Heartsteps-activity-icons</title><path d="M17.35,28.2a2,2,0,0,1-.34,0,2,2,0,0,1-1.09-.56,2,2,0,0,1-.56-1.76l.63-3.7L12.17,18.2l-1.66,1.66a2.06,2.06,0,0,1-1,.55l-4.57.87a2,2,0,0,1-1.8-.56,1.89,1.89,0,0,1-.55-1,2,2,0,0,1,1.6-2.35l4-.75,1.64-1.65,0,0,4.26-4.26-1.65-.49L10,12.58a2.05,2.05,0,0,1-2.84,0,2,2,0,0,1,0-2.84l3.29-3.29a2,2,0,0,1,2-.5L17,7.29l.13.06c.44.25,3.82,3.57,6.09,5.82L25.34,11a2,2,0,0,1,2.84,2.84l-3.59,3.59a2,2,0,0,1-2.84,0l-2-2-2.4,2.4,2.21,2.2a2,2,0,0,1,.56,1.76l-.8,4.72a2,2,0,0,1-.82,1.3A2,2,0,0,1,17.35,28.2ZM12.17,16.63h0a.72.72,0,0,1,.46.2l4.51,4.66a.65.65,0,0,1,.17.56l-.68,4a.71.71,0,0,0,.2.63.78.78,0,0,0,.38.2.74.74,0,0,0,.54-.12.76.76,0,0,0,.29-.47h0l.8-4.72a.69.69,0,0,0-.2-.62L16,18.31a.66.66,0,0,1,0-.92l3.32-3.31a.67.67,0,0,1,.91,0l2.44,2.44a.72.72,0,0,0,1,0l3.59-3.59a.72.72,0,0,0,0-1,.71.71,0,0,0-1,0l-2.63,2.63a.65.65,0,0,1-.92,0c-2.13-2.12-5.62-5.54-6.24-6L12,7.19a.7.7,0,0,0-.71.18L8,10.65a.72.72,0,0,0,0,1,.71.71,0,0,0,1,0L11.76,9a.65.65,0,0,1,.64-.16l3.06.91a.64.64,0,0,1,.28,1.07l-5,5,0,0L8.88,17.63a.7.7,0,0,1-.34.18l-4.15.79a.71.71,0,0,0-.57.84.66.66,0,0,0,.19.37.73.73,0,0,0,.64.2l4.57-.87a.78.78,0,0,0,.38-.2l2.11-2.12A.68.68,0,0,1,12.17,16.63Z" style="fill:#4a4a4a"/><path d="M22.57,9.9a2.82,2.82,0,1,1,2-.83A2.81,2.81,0,0,1,22.57,9.9Zm0-4.41A1.57,1.57,0,0,0,21.45,6a1.61,1.61,0,0,0,0,2.26,1.63,1.63,0,0,0,2.25,0A1.61,1.61,0,0,0,23.7,6,1.58,1.58,0,0,0,22.57,5.49Z" style="fill:#4a4a4a"/><path d="M12.14,24.94H5.42a.65.65,0,0,1,0-1.3h6.72a.65.65,0,0,1,0,1.3Z" style="fill:#4a4a4a"/><path d="M10.05,28.34H1.59c-.27,0-.48-.29-.48-.64s.21-.65.48-.65h8.46c.26,0,.47.29.47.65S10.31,28.34,10.05,28.34Z" style="fill:#4a4a4a"/></svg>