<svg id="Layer_1" data-name="Layer 1" xmlns="http://www.w3.org/2000/svg" viewBox="0 0 30 30"><title>Heartsteps-activity-icons</title><path d="M15.47,19.17l0,7.1a1.67,1.67,0,0,0,1.69,1.52h0A1.61,1.61,0,0,0,18.7,26.2l.1-12.14a.31.31,0,0,1,.28-.34l2.88-.3a.77.77,0,0,0,.71-.64l1.07-5.07a1.31,1.31,0,0,0-.93-1.58h-.09A1.31,1.31,0,0,0,21.21,7.2l-.66,3.14a.39.39,0,0,1-.48.3l-2-.51a2.48,2.48,0,0,0-.61-.07h-4.3a2.24,2.24,0,0,0-.52,0l-2.43.51a.26.26,0,0,1-.29-.2L9.41,7.35A1.45,1.45,0,0,0,8,6.13l-.3,0a1.27,1.27,0,0,0-.84,1.54l.87,4.87a.92.92,0,0,0,.76.72l3.38.64a.31.31,0,0,1,.28.31V26.12a1.6,1.6,0,0,0,1.71,1.67h0a1.67,1.67,0,0,0,1.67-1.67V19.51l0-.34" style="fill:none;stroke:#4a4a4a;stroke-linecap:round;stroke-miterlimit:10;stroke-width:1.2000000476837158px"/><path d="M15.19,8.71A2.67,2.67,0,0,1,12.55,6a2.64,2.64,0,1,1,2.64,2.7Zm0-4.27A1.57,1.57,0,1,0,16.72,6,1.55,1.55,0,0,0,15.19,4.44Z" style="fill:#4a4a4a"/></svg>