<svg id="Layer_1" data-name="Layer 1" xmlns="http://www.w3.org/2000/svg" viewBox="0 0 30 30"><title>Heartsteps-activity-icons</title><path d="M15.2,28.85a1.65,1.65,0,0,1-1.65-1.65c0-3.1.11-5.15,2.15-7.47l-1-4.45L7.66,15a1.64,1.64,0,0,1-1.59-1.64V10.15a1.65,1.65,0,1,1,3.3,0v1.63l6,.22,4.46-2.7-1.45-2a1.65,1.65,0,0,1,2.65-2l2.46,3.34a1.65,1.65,0,0,1-.34,2.3l-2.34,1.73,1.58,6.33,1.85,3.16a1.62,1.62,0,0,1,.26.88v3.72a1.65,1.65,0,0,1-3.3,0V23.59l-1.6-2.73-.95.5-.05.05c-1.78,1.76-1.78,3.11-1.78,5.79A1.65,1.65,0,0,1,15.2,28.85ZM7.72,9.6a.55.55,0,0,0-.55.55v3.22a.57.57,0,0,0,.53.55l7.51.27a.56.56,0,0,1,.52.44l1.1,5.14a.56.56,0,0,1-.13.49c-2,2.12-2,3.84-2,6.94a.55.55,0,0,0,1.1,0c0-2.7,0-4.49,2.11-6.57l.08-.08a8.63,8.63,0,0,1,1.66-.9.55.55,0,0,1,.72.21l1.94,3.3a.53.53,0,0,1,.07.28v3.39a.55.55,0,0,0,1.1,0V23.11a.52.52,0,0,0-.09-.29v0l-1.9-3.24a.47.47,0,0,1-.06-.15l-1.68-6.76a.56.56,0,0,1,.2-.57l2.63-1.95a.55.55,0,0,0,.11-.77L20.18,6a.55.55,0,0,0-.77-.12.54.54,0,0,0-.21.36.51.51,0,0,0,.1.41l1.8,2.45a.52.52,0,0,1,.1.43.54.54,0,0,1-.25.37L15.83,13a.5.5,0,0,1-.31.08L8.8,12.86a.54.54,0,0,1-.53-.55V10.15A.55.55,0,0,0,7.72,9.6Z" style="fill:#4a4a4a"/><path d="M14.69,10.65A2.69,2.69,0,1,1,17.38,8,2.7,2.7,0,0,1,14.69,10.65Zm0-4.3A1.61,1.61,0,1,0,16.3,8,1.61,1.61,0,0,0,14.69,6.35Z" style="fill:#4a4a4a"/><path d="M8,7.39a2.47,2.47,0,1,1,2.47-2.47A2.48,2.48,0,0,1,8,7.39ZM8,3.55A1.37,1.37,0,1,0,9.34,4.92,1.37,1.37,0,0,0,8,3.55Z" style="fill:#4a4a4a"/></svg>