<svg id="Layer_1" data-name="Layer 1" xmlns="http://www.w3.org/2000/svg" viewBox="0 0 30 30"><title>Heartsteps-activity-icons</title><path d="M17,29a2,2,0,0,1-1.44-.62A2,2,0,0,1,12.15,27V13.91a.54.54,0,0,1,.54-.54h5.75a.54.54,0,0,1,.54.54V27A2,2,0,0,1,17,29Zm-1.44-2.52a.55.55,0,0,1,.55.54.89.89,0,1,0,1.78,0V14.45H13.24V27A.89.89,0,1,0,15,27,.54.54,0,0,1,15.56,26.44Z" style="fill:#4a4a4a"/><path d="M18.38,14.45a.54.54,0,0,1-.39-.91l1.86-1.95V5a.54.54,0,1,1,1.08,0v6.78a.54.54,0,0,1-.15.38l-2,2.1A.53.53,0,0,1,18.38,14.45Z" style="fill:#4a4a4a"/><path d="M12.75,14.45a.53.53,0,0,1-.39-.16l-2-2.1a.58.58,0,0,1-.15-.38V5a.55.55,0,0,1,.55-.54.54.54,0,0,1,.54.54v6.56l1.86,1.95a.54.54,0,0,1-.39.91Z" style="fill:#4a4a4a"/><path d="M15.56,27.52A.54.54,0,0,1,15,27V21.2a.54.54,0,0,1,.54-.54.55.55,0,0,1,.55.54V27A.55.55,0,0,1,15.56,27.52Z" style="fill:#4a4a4a"/><path d="M28.44,6.42h-26a.55.55,0,0,1-.54-.55.54.54,0,0,1,.54-.54h26a.54.54,0,0,1,.54.54A.55.55,0,0,1,28.44,6.42Z" style="fill:#4a4a4a"/><path d="M15.56,12.48a2.37,2.37,0,1,1,2.38-2.37A2.38,2.38,0,0,1,15.56,12.48Zm0-3.61a1.24,1.24,0,1,0,1.24,1.24A1.24,1.24,0,0,0,15.56,8.87Z" style="fill:#4a4a4a"/><path d="M3.88,3.48H5.53a0,0,0,0,1,0,0V8.23a0,0,0,0,1,0,0H3.88a.31.31,0,0,1-.31-.31V3.79A.31.31,0,0,1,3.88,3.48Z" style="fill:#fff;stroke:#4a4a4a;stroke-miterlimit:10;stroke-width:0.7901673081378554px"/><rect x="5.53" y="2.85" width="1.96" height="6" rx="0.31" style="fill:#fff;stroke:#4a4a4a;stroke-miterlimit:10;stroke-width:0.8881883070370795px"/><path d="M25.55,3.48H27.2a0,0,0,0,1,0,0V8.23a0,0,0,0,1,0,0H25.55a.31.31,0,0,1-.31-.31V3.79A.31.31,0,0,1,25.55,3.48Z" transform="translate(52.45 11.71) rotate(-180)" style="fill:#fff;stroke:#4a4a4a;stroke-miterlimit:10;stroke-width:0.7901673081378554px"/><rect x="23.29" y="2.85" width="1.96" height="6" rx="0.31" transform="translate(48.53 11.71) rotate(-180)" style="fill:#fff;stroke:#4a4a4a;stroke-miterlimit:10;stroke-width:0.8881883070370795px"/></svg>