<?xml version="1.0" encoding="utf-8"?>
<!-- Generator: Adobe Illustrator 23.0.2, SVG Export Plug-In . SVG Version: 6.00 Build 0)  -->
<svg version="1.1" id="Layer_1" xmlns="http://www.w3.org/2000/svg" xmlns:xlink="http://www.w3.org/1999/xlink" x="0px" y="0px"
	 viewBox="0 0 30 30" style="enable-background:new 0 0 30 30;" xml:space="preserve">
<style type="text/css">
	.st0{fill:none;stroke:#4A4A4A;stroke-width:1.2;stroke-linecap:round;stroke-miterlimit:10;}
	.st1{fill:none;stroke:#4A4A4A;stroke-width:1.2;stroke-miterlimit:10;}
</style>
<title>Heartsteps-activity-icons</title>
<path class="st0" d="M23.8,4.5L20.6,11c0,0.1,0,0.2,0,0.4l2.5,12.5l0.6,0.3L24,11.3l0.1-0.3l3.3-6.6"/>
<path class="st1" d="M25.7,25.2L9.1,19c-1.3-0.5-2.8-0.4-3.9,0.3l0,0c-1.9,1.3-2.5,3.9-1.2,5.9c0.1,0.1,0.1,0.2,0.2,0.3l0,0
	c0.8,1,2,1.6,3.3,1.6l17.9,0.5c0.3,0,0.6-0.1,0.8-0.3l0,0c0.4-0.4,0.4-0.9,0.2-1.4l-0.1-0.2C26.2,25.4,25.9,25.3,25.7,25.2z"/>
<circle class="st1" cx="7.6" cy="22.9" r="1.9"/>
</svg>
