<svg id="Layer_1" data-name="Layer 1" xmlns="http://www.w3.org/2000/svg" viewBox="0 0 30 30"><title>Heartsteps-activity-icons</title><path d="M5.84,27.86A5.17,5.17,0,1,1,11,22.69,5.17,5.17,0,0,1,5.84,27.86Zm0-9a3.85,3.85,0,1,0,3.84,3.85A3.85,3.85,0,0,0,5.84,18.84Z" style="fill:#4a4a4a"/><path d="M5.84,24.85a2.17,2.17,0,1,1,0-4.33A2.18,2.18,0,0,1,8,22.69,2.16,2.16,0,0,1,5.84,24.85Zm0-3a.85.85,0,0,0-.85.85.83.83,0,0,0,.85.84.85.85,0,0,0,.84-.84A.82.82,0,0,0,6.37,22,.83.83,0,0,0,5.84,21.84Z" style="fill:#4a4a4a"/><path d="M24.22,27.86a5.17,5.17,0,1,1,5.17-5.17A5.18,5.18,0,0,1,24.22,27.86Zm0-9a3.85,3.85,0,1,0,3.85,3.85A3.86,3.86,0,0,0,24.22,18.84Z" style="fill:#4a4a4a"/><path d="M24.22,24.85a2.17,2.17,0,0,1,0-4.33,2.12,2.12,0,0,1,1.37.5,2.1,2.1,0,0,1,.79,1.67A2.16,2.16,0,0,1,24.22,24.85Zm0-3a.85.85,0,0,0-.84.85.84.84,0,0,0,1.68,0,.86.86,0,0,0-.84-.85Z" style="fill:#4a4a4a"/><path d="M15.76,22.71H7.49A.54.54,0,0,1,7,22.18a.64.64,0,0,0-.26-.51.54.54,0,0,1-.21-.36.51.51,0,0,1,.12-.39l5.13-6.11a.54.54,0,0,1,.43-.2H22.42a.54.54,0,0,1,.5.31.52.52,0,0,1-.09.57l-6.66,7A.56.56,0,0,1,15.76,22.71ZM8,21.65h7.56l5.67-6H12.42L7.74,21.23A1.88,1.88,0,0,1,8,21.65Z" style="fill:#4a4a4a"/><path d="M24,21.56a.57.57,0,0,1-.54-.41l-3-12.49a.54.54,0,0,1,.11-.47A.56.56,0,0,1,21,8h4.88a.55.55,0,0,1,.55.47c.12.8,0,2.37-1.43,2.6a.56.56,0,0,1-.65-.44.55.55,0,0,1,.46-.63c.39-.07.5-.54.52-.91H21.72l2.79,11.81a.55.55,0,0,1-.41.66Z" style="fill:#4a4a4a"/><path d="M15.59,23.25a.57.57,0,0,1-.51-.32L9.71,11.69A.56.56,0,0,1,10,11a.55.55,0,0,1,.75.26l5.37,11.24a.54.54,0,0,1-.26.74A.53.53,0,0,1,15.59,23.25Z" style="fill:#4a4a4a"/><path d="M12.47,12H7.81a.56.56,0,0,1-.56-.56v-.62A2.68,2.68,0,0,1,9.92,8.15h2.55a.56.56,0,0,1,.56.56v2.74A.56.56,0,0,1,12.47,12Zm-4.1-1.12h3.54V9.27h-2a1.56,1.56,0,0,0-1.55,1.56Z" style="fill:#4a4a4a"/></svg>