<svg id="Layer_1" data-name="Layer 1" xmlns="http://www.w3.org/2000/svg" viewBox="0 0 30 30"><title>Heartsteps-activity-icons</title><path id="Fill-3" d="M19.37,6.54a1.4,1.4,0,1,0,1.38,1.4,1.4,1.4,0,0,0-1.38-1.4m0,3.9a2.51,2.51,0,1,1,2.48-2.5,2.5,2.5,0,0,1-2.48,2.5" style="fill:#4a4a4a;fill-rule:evenodd"/><path d="M16,10.32a.27.27,0,0,1-.15-.18l-.5-2.29a1.25,1.25,0,0,1,.06-.69l1.22-3.28a1.38,1.38,0,0,0-.83-1.8h0A1.39,1.39,0,0,0,14,2.9L12.41,6.65a.82.82,0,0,0,0,.49l.94,4a1.38,1.38,0,0,1,0,.64L12,17.37a1.31,1.31,0,0,1-.38.7L4.47,24.92a1.57,1.57,0,0,0-.09,2.16h0a1.55,1.55,0,0,0,2.26.09l7.05-6.88a.45.45,0,0,1,.53-.06l4.58,2.51a.72.72,0,0,1,.34.61l0,3.9a1.41,1.41,0,0,0,1.39,1.42h0a1.41,1.41,0,0,0,1.43-1.4V21.68a.7.7,0,0,0-.32-.58l-4.08-2.72,1.31-3.15a.24.24,0,0,1,.4-.07l.86.84a.61.61,0,0,1,.14.68l-.58,1.38a1.25,1.25,0,0,0,.49,1.58h0a1.24,1.24,0,0,0,1.77-.52L23,16.34a1.22,1.22,0,0,0-.19-1.19l-2-2.53a1.19,1.19,0,0,0-.76-.55Z" style="fill:none;stroke:#4a4a4a;stroke-miterlimit:10;stroke-width:1.2000000476837158px;fill-rule:evenodd"/></svg>