<svg id="Layer_1" data-name="Layer 1" xmlns="http://www.w3.org/2000/svg" viewBox="0 0 30 30"><title>Heartsteps-activity-icons</title><g id="Swim"><g id="noun_1209834_cc" data-name="noun 1209834 cc"><g id="Group"><path id="Shape" d="M25.5,18.85a4.91,4.91,0,0,1-2.85-.94,3.72,3.72,0,0,0-4.46,0,4.77,4.77,0,0,1-5.7,0,3.71,3.71,0,0,0-4.45,0,4.77,4.77,0,0,1-5.7,0,.57.57,0,0,1-.14-.79A.54.54,0,0,1,3,17a3.74,3.74,0,0,0,4.45,0,4.79,4.79,0,0,1,5.71,0,3.74,3.74,0,0,0,4.45,0,4.77,4.77,0,0,1,5.7,0,3.74,3.74,0,0,0,4.45,0,.55.55,0,0,1,.77.14.58.58,0,0,1-.14.79A4.91,4.91,0,0,1,25.5,18.85Z" style="fill:#4a4a4a"/><path d="M25.5,22.46a4.92,4.92,0,0,1-2.85-.95,3.75,3.75,0,0,0-4.46,0,4.77,4.77,0,0,1-5.7,0,3.74,3.74,0,0,0-4.45,0,4.77,4.77,0,0,1-5.7,0,.56.56,0,0,1-.14-.78A.54.54,0,0,1,3,20.58a3.7,3.7,0,0,0,4.45,0,4.79,4.79,0,0,1,5.71,0,3.72,3.72,0,0,0,4.45,0,4.77,4.77,0,0,1,5.7,0,3.7,3.7,0,0,0,4.45,0,.55.55,0,0,1,.77.15.57.57,0,0,1-.14.78A4.92,4.92,0,0,1,25.5,22.46Z" style="fill:#4a4a4a"/><path d="M25.5,26.06a4.91,4.91,0,0,1-2.85-.94,3.72,3.72,0,0,0-4.46,0,4.8,4.8,0,0,1-5.7,0,3.71,3.71,0,0,0-4.45,0,4.8,4.8,0,0,1-5.7,0,.57.57,0,0,1-.14-.79A.53.53,0,0,1,3,24.19a3.74,3.74,0,0,0,4.45,0,4.79,4.79,0,0,1,5.71,0,3.74,3.74,0,0,0,4.45,0,4.77,4.77,0,0,1,5.7,0,3.74,3.74,0,0,0,4.45,0,.54.54,0,0,1,.77.14.58.58,0,0,1-.14.79A4.91,4.91,0,0,1,25.5,26.06Z" style="fill:#4a4a4a"/><path d="M26,15.15a2.7,2.7,0,1,1,2.64-2.7A2.67,2.67,0,0,1,26,15.15Zm0-4.27a1.57,1.57,0,1,0,1.53,1.57A1.55,1.55,0,0,0,26,10.88Z" style="fill:#4a4a4a"/><path d="M15.39,18.85a4.58,4.58,0,0,1-2.73-.94,3.35,3.35,0,0,0-3.48-.43.51.51,0,0,1-.67-.28.58.58,0,0,1,.22-.74l8.06-4.74L15.6,9.65a1.81,1.81,0,0,1-.09-1.59,1.61,1.61,0,0,1,1.17-1l5.56-1a1.6,1.6,0,0,1,1.82,1.39,1.68,1.68,0,0,1-1.29,2l-3.25.6L24,17.65a.59.59,0,0,1,0,.66.5.5,0,0,1-.6.17,5.42,5.42,0,0,1-1-.57,3.4,3.4,0,0,0-4.24,0A4.58,4.58,0,0,1,15.39,18.85Zm-3.94-2.7a4.57,4.57,0,0,1,1.81.83,3.44,3.44,0,0,0,4.25,0,4.36,4.36,0,0,1,4.54-.54L18.21,9.89a.62.62,0,0,1,0-.53A.53.53,0,0,1,18.57,9l4-.74A.56.56,0,0,0,23,7.65a.52.52,0,0,0-.61-.46l-5.55,1a.56.56,0,0,0-.39.33.59.59,0,0,0,0,.52L18,11.63a.66.66,0,0,1,.06.44.55.55,0,0,1-.26.35Z" style="fill:#4a4a4a"/></g></g></g></svg>