<svg xmlns="http://www.w3.org/2000/svg" viewBox="0 0 29.01 28"><defs><style>.cls-1{fill:#4a4a4a;}</style></defs><title>Exercise-bike-gray</title><g id="Layer_2" data-name="Layer 2"><g id="Layer_1-2" data-name="Layer 1"><g id="Exercise-bike-gray"><path id="Shape" class="cls-1" d="M7.94,25.18a4.15,4.15,0,0,1-4.11-3.31,4.05,4.05,0,0,1,2.59-4.54l13.25-5a7,7,0,0,1,5.81.38,6.65,6.65,0,0,1,3.41,4.59,6.51,6.51,0,0,1-1.45,5.48,6.92,6.92,0,0,1-5.27,2.41l-14.23,0ZM22.16,13a5.85,5.85,0,0,0-2.05.38l-13.26,5A2.87,2.87,0,0,0,5,21.65,3,3,0,0,0,7.94,24h0l14.23,0a5.68,5.68,0,0,0,4.34-2,5.36,5.36,0,0,0,1.2-4.52A5.49,5.49,0,0,0,24.9,13.7,5.74,5.74,0,0,0,22.16,13Z"/><path class="cls-1" d="M21.62,22.25a3.74,3.74,0,1,1,3.84-3.74A3.8,3.8,0,0,1,21.62,22.25Zm0-6.31a2.57,2.57,0,1,0,2.64,2.57A2.61,2.61,0,0,0,21.62,15.94Z"/><path class="cls-1" d="M15.09,27.75a.69.69,0,0,1-.36-.11.58.58,0,0,1-.12-.82l6.53-8.65A.6.6,0,0,1,22,18a.57.57,0,0,1,.13.82l-6.53,8.65A.58.58,0,0,1,15.09,27.75Z"/><path class="cls-1" d="M17.17,27.75h-3.7a.59.59,0,1,1,0-1.17h3.7a.59.59,0,1,1,0,1.17Z"/><path class="cls-1" d="M21.62,13a.59.59,0,0,1-.6-.58v-8a.6.6,0,0,1,1.2,0v8A.59.59,0,0,1,21.62,13Z"/><path class="cls-1" d="M22.73,5.07h-5A1.39,1.39,0,0,1,16.29,3.7V2.49a1.39,1.39,0,0,1,1.26-1.37L23,.53A1.45,1.45,0,0,1,24.2,1a1.34,1.34,0,0,1,.33,1.22L24.11,4A1.4,1.4,0,0,1,22.73,5.07Zm.42-3.38h0l-5.45.59a.21.21,0,0,0-.19.21V3.7a.21.21,0,0,0,.21.2h5a.21.21,0,0,0,.21-.16l.42-1.8a.22.22,0,0,0-.05-.18A.22.22,0,0,0,23.15,1.69Z"/><path class="cls-1" d="M22.6,28a.59.59,0,0,1-.6-.58V24.6a.6.6,0,0,1,1.2,0v2.82A.59.59,0,0,1,22.6,28Z"/><path class="cls-1" d="M23.82,28H21.39a.59.59,0,1,1,0-1.17h2.43a.59.59,0,1,1,0,1.17Z"/><path class="cls-1" d="M8.47,28a.59.59,0,0,1-.6-.58V24.6a.59.59,0,0,1,.6-.59.59.59,0,0,1,.6.59v2.82A.59.59,0,0,1,8.47,28Z"/><path class="cls-1" d="M9.69,28H7.26a.59.59,0,1,1,0-1.17H9.69a.59.59,0,1,1,0,1.17Z"/><path class="cls-1" d="M8.28,17.85a.6.6,0,0,1-.56-.36L4.38,9.63a.58.58,0,0,1,0-.45.62.62,0,0,1,.32-.32l2.76-1.1A.6.6,0,0,1,8.22,8l4.09,7.57a.6.6,0,0,1,0,.47.57.57,0,0,1-.34.34l-3.5,1.41A.66.66,0,0,1,8.28,17.85ZM5.72,9.72,8.6,16.51,11,15.57,7.41,9Z"/><path class="cls-1" d="M6.42,9.39A.6.6,0,0,1,5.87,9L3.39,3.21a.58.58,0,0,1,.33-.76.59.59,0,0,1,.78.31L7,8.58a.58.58,0,0,1-.33.76A.59.59,0,0,1,6.42,9.39Z"/><path class="cls-1" d="M2,3.94a.59.59,0,0,1-.54-.33L.06.84A.58.58,0,0,1,.34.06a.6.6,0,0,1,.8.27L2.3,2.69l4-.82A.6.6,0,0,1,7,2.32.59.59,0,0,1,6.55,3l-4.46.92Z"/></g></g></g></svg>