<svg xmlns="http://www.w3.org/2000/svg" viewBox="0 0 30 30"><defs><style>.cls-1{fill:#2aa2e5;}</style></defs><title>Asset 1</title><g id="Layer_2" data-name="Layer 2"><g id="Layer_1-2" data-name="Layer 1"><path class="cls-1" d="M15,0A15,15,0,1,0,30,15,15,15,0,0,0,15,0ZM13,24.12a1,1,0,0,1-.77.34.94.94,0,0,1-.76-.34L4.39,17.05a1.14,1.14,0,0,1,0-1.54L6,14a.91.91,0,0,1,.74-.34A1.09,1.09,0,0,1,7.5,14l4.77,4.77L22.5,8.52a1.12,1.12,0,0,1,.79-.34,1,1,0,0,1,.74.34l1.58,1.54a1.13,1.13,0,0,1,0,1.53Z"/></g></g></svg>