<?xml version="1.0" encoding="utf-8"?>
<!-- Generator: Adobe Illustrator 23.0.3, SVG Export Plug-In . SVG Version: 6.00 Build 0)  -->
<svg version="1.1" id="Layer_1" xmlns="http://www.w3.org/2000/svg" xmlns:xlink="http://www.w3.org/1999/xlink" x="0px" y="0px"
	 viewBox="0 0 27 29" style="enable-background:new 0 0 27 29;" xml:space="preserve">
<style type="text/css">
	.st0{fill:#2AA2E5;}
	.st1{fill:none;stroke:#2AA2E5;}
</style>
<g>
	<path class="st0" d="M8.1,12.4c0.7,0,1.4-0.6,1.4-1.4c0-0.8-0.6-1.4-1.4-1.4c-0.7,0-1.3,0.6-1.3,1.4C6.8,11.8,7.4,12.4,8.1,12.4z"
		/>
	<path class="st0" d="M18.9,12.4c0.7,0,1.4-0.6,1.4-1.4c0-0.8-0.6-1.4-1.4-1.4c-0.7,0-1.4,0.6-1.4,1.4
		C17.5,11.8,18.2,12.4,18.9,12.4z"/>
	<path class="st1" d="M9.4,19.3c0,0,2-1.4,4.9-1.4c2.9,0,4.5,1.4,4.5,1.4"/>
</g>
</svg>
