<?xml version="1.0" encoding="utf-8"?>
<!-- Generator: Adobe Illustrator 23.0.3, SVG Export Plug-In . SVG Version: 6.00 Build 0)  -->
<svg version="1.1" id="Layer_1" xmlns="http://www.w3.org/2000/svg" xmlns:xlink="http://www.w3.org/1999/xlink" x="0px" y="0px"
	 viewBox="0 0 27 28" style="enable-background:new 0 0 27 28;" xml:space="preserve">
<style type="text/css">
	.st0{fill:#2AA2E5;}
	.st1{fill:none;stroke:#2AA2E5;stroke-width:1.05;}
</style>
<g>
	<g>
		<path class="st0" d="M8.8,11.2c0.7,0,1.4-0.6,1.4-1.4c0-0.8-0.6-1.4-1.4-1.4C8,8.4,7.4,9,7.4,9.8C7.4,10.6,8,11.2,8.8,11.2z"/>
	</g>
	<g>
		<path class="st0" d="M19.6,11.2c0.7,0,1.3-0.6,1.3-1.4c0-0.8-0.6-1.4-1.3-1.4c-0.7,0-1.4,0.6-1.4,1.4
			C18.2,10.6,18.8,11.2,19.6,11.2z"/>
	</g>
	<g>
		<path class="st1" d="M6.1,15.4c0,0,2.9,4.2,7.7,4.2c4.8,0,7.1-4.2,7.1-4.2"/>
	</g>
</g>
</svg>
