<svg id="Layer_1" data-name="Layer 1" xmlns="http://www.w3.org/2000/svg" viewBox="0 0 207.9 37.85"><defs><style>.cls-1{fill:none;}.cls-2{fill:#fff;}.cls-3{isolation:isolate;}</style></defs><title>Heartsteps-logo</title><g id="Logo-White"><g id="Group-2"><rect class="cls-1" x="15.2" y="15.2" width="13" height="13" transform="translate(-8.99 21.7) rotate(-45)"/><rect class="cls-1" x="5.04" y="6.58" width="13" height="9.9" transform="translate(-4.77 11.54) rotate(-45)"/><rect class="cls-1" x="26.99" y="4.97" width="9.9" height="13" transform="translate(1.25 25.94) rotate(-45)"/><path class="cls-2" d="M42.8,11.2,32.2.6a1.93,1.93,0,0,0-2.8,0L21.7,8.3,14,.6a1.93,1.93,0,0,0-2.8,0L.6,11.2A1.93,1.93,0,0,0,.6,14l8.6,8.6a2.09,2.09,0,0,0,.4.6L20.2,33.8a2,2,0,0,0,1.4.6h.2a2,2,0,0,0,1.4-.6L33.8,23.2a2.09,2.09,0,0,0,.4-.6L42.8,14A1.93,1.93,0,0,0,42.8,11.2ZM12.6,3.4l7,7-9.2,9.2-7-7Zm9.1,27.5-9.2-9.2,9.2-9.2,9.2,9.2ZM33,19.6l-9.2-9.2,7-7L40,12.6Z"/><g class="cls-3"><path class="cls-2" d="M69.1,5.5c.1-.1.2-.1.4-.1h2.2c.2,0,.3,0,.4.1s.1.2.1.4L69.4,28.7a.52.52,0,0,1-.2.4.9.9,0,0,1-.5.1H66.5c-.2,0-.3,0-.4-.1s-.1-.2-.1-.4l1.2-9.9c0-.1,0-.2-.1-.2H57.7a.22.22,0,0,0-.2.2l-1.2,9.9a.52.52,0,0,1-.2.4c-.1.1,0,.1-.2.1H53.7c-.2,0-.3,0-.4-.1s-.1-.2-.1-.4L56,5.9a.52.52,0,0,1,.2-.4c.1-.1.2-.1.4-.1h2.2a.37.37,0,0,1,.3.1c.1.1.1.2.1.4L58,15.6c0,.1,0,.2.1.2h9.4a.22.22,0,0,0,.2-.2l1.2-9.7C69,5.8,69,5.6,69.1,5.5Z"/><path class="cls-2" d="M82.9,26.1a4.36,4.36,0,0,0,1.7-1.6.54.54,0,0,1,.4-.3.37.37,0,0,1,.3.1l1.2.9a.52.52,0,0,1,.2.4.37.37,0,0,1-.1.3,7.74,7.74,0,0,1-2.8,2.6,8.68,8.68,0,0,1-3.9,1,6.34,6.34,0,0,1-3.8-1.1A5.41,5.41,0,0,1,74,25.3a12.31,12.31,0,0,1-.3-2.9,14.08,14.08,0,0,1,.1-2,10.9,10.9,0,0,1,.4-2.2,7.49,7.49,0,0,1,.5-1.6,7.5,7.5,0,0,1,2.8-3.7A7.75,7.75,0,0,1,82,11.5c2.2,0,3.7.6,4.7,1.8s1.4,3,1.4,5.3c0,.4,0,1.3-.1,2.5a.63.63,0,0,1-.6.5H76.9a.22.22,0,0,0-.2.2c0,.6-.1,1-.1,1.2a1.7,1.7,0,0,0,.1.7,2.84,2.84,0,0,0,1.2,2.1,4.24,4.24,0,0,0,2.6.8A3.87,3.87,0,0,0,82.9,26.1ZM79.1,15.2a3.82,3.82,0,0,0-1.5,2,7.39,7.39,0,0,0-.5,1.9c0,.1,0,.2.1.2h7.5a.22.22,0,0,0,.2-.2c0-.5.1-.9.1-1.1a3.49,3.49,0,0,0-.9-2.5,3.38,3.38,0,0,0-2.5-1A3.53,3.53,0,0,0,79.1,15.2Z"/><path class="cls-2" d="M102.4,12c.1-.1.2-.1.4-.1H105c.2,0,.3,0,.4.1s.1.2.1.4l-2,16.3a.52.52,0,0,1-.2.4c-.1.1-.2.1-.4.1h-2.2c-.2,0-.3,0-.4-.1s-.1-.2-.1-.4l.1-.9v-.1h-.1A5,5,0,0,1,98.3,29a5.45,5.45,0,0,1-2.2.5,5.59,5.59,0,0,1-3.8-1.2,5.47,5.47,0,0,1-1.9-3.4,13.61,13.61,0,0,1-.2-2.1c0-.6.1-1.4.2-2.3a14.48,14.48,0,0,1,1-4.1,8.87,8.87,0,0,1,2.7-3.5,7.22,7.22,0,0,1,4.2-1.3,4.64,4.64,0,0,1,2.1.4,3.74,3.74,0,0,1,1.5,1.3l.1.1.1-.1.1-.9A.52.52,0,0,1,102.4,12Zm-1.2,8.5a10.9,10.9,0,0,0,.1-1.7,6.16,6.16,0,0,0-.4-2.6,2.58,2.58,0,0,0-2.6-1.7,3.59,3.59,0,0,0-3.1,1.6,9.21,9.21,0,0,0-1.6,4.5,9.15,9.15,0,0,0-.1,1.6,6.77,6.77,0,0,0,.4,2.6,3,3,0,0,0,3,1.9,3.68,3.68,0,0,0,3.1-1.8A13.78,13.78,0,0,0,101.2,20.5Z"/><path class="cls-2" d="M118.2,12.1c.2.1.2.2.2.4a.77.77,0,0,1-.1.3l-.7,2.2c0,.2-.2.3-.4.3h-.3a3.59,3.59,0,0,0-1.1-.2h-.5a4,4,0,0,0-2.7,1.1,3.87,3.87,0,0,0-1.3,2.7l-1.2,9.8a.52.52,0,0,1-.2.4c-.1.1-.2.1-.4.1h-2.2c-.2,0-.3,0-.4-.1s-.1-.2-.1-.4l2-16.3a.52.52,0,0,1,.2-.4c.1-.1.2-.1.4-.1h2.2a.37.37,0,0,1,.3.1c.1.1.1.2.1.4l-.2,1.6v.2a.1.1,0,0,0,.1-.1,5.23,5.23,0,0,1,4.3-2.3A3,3,0,0,1,118.2,12.1Z"/><path class="cls-2" d="M128.5,14.4c-.1.1-.2.1-.4.1h-3.4a.22.22,0,0,0-.2.2l-1.1,8.9v.7a2.07,2.07,0,0,0,.5,1.5,2.65,2.65,0,0,0,1.7.5h.8c.2,0,.3,0,.4.1s.1.2.1.4l-.2,1.8a.47.47,0,0,1-.5.5h-1.4a6.16,6.16,0,0,1-3.4-.7,3.16,3.16,0,0,1-1.2-2.7,4.59,4.59,0,0,1,.1-1l1.3-10.1a.22.22,0,0,0-.2-.2h-1.8c-.2,0-.3,0-.4-.1s-.1-.2-.1-.4l.2-1.7a.52.52,0,0,1,.2-.4c.1-.1.2-.1.4-.1h1.8a.22.22,0,0,0,.2-.2l.4-3.8a.52.52,0,0,1,.2-.4c.1-.1.2-.1.4-.1h2c.2,0,.3,0,.3.1s.1.2.1.4l-.4,3.8c0,.1,0,.2.1.2h3.4c.2,0,.3,0,.4.1s.1.2.1.4l-.2,1.7C128.7,14.2,128.6,14.4,128.5,14.4Z"/><path class="cls-2" d="M131.8,27.9a5,5,0,0,1-2-4.2,3.87,3.87,0,0,1,.1-.9l.1-.8a.52.52,0,0,1,.2-.4c.1-.1.2-.1.4-.1h2.1c.2,0,.3,0,.4.1s.1.2.1.4l-.1.6V23a2.88,2.88,0,0,0,1.3,2.5,5.7,5.7,0,0,0,3.6,1,5.82,5.82,0,0,0,3.7-1.1,3.47,3.47,0,0,0,1.3-2.9,2.48,2.48,0,0,0-1.1-2.1,17.29,17.29,0,0,0-4-2.1c-1.4-.6-2.6-1.2-3.4-1.6a9.09,9.09,0,0,1-2.1-1.8,4,4,0,0,1-.8-2.7,6.8,6.8,0,0,1,1.1-3.8,7.06,7.06,0,0,1,2.9-2.5A9.86,9.86,0,0,1,140,5a8.09,8.09,0,0,1,5.4,1.6,5.36,5.36,0,0,1,2,4.3,3.44,3.44,0,0,1-.1.9l-.1.5a.52.52,0,0,1-.2.4c-.1.1-.2.1-.4.1h-2.1c-.2,0-.3,0-.4-.1a.37.37,0,0,1-.1-.3v-.9a3.37,3.37,0,0,0-1.2-2.6,5.11,5.11,0,0,0-3.4-1,5.22,5.22,0,0,0-3.5,1,3.56,3.56,0,0,0-1.2,2.9,3,3,0,0,0,.5,1.6,4.66,4.66,0,0,0,1.5,1.2c.7.3,1.7.8,3,1.3s2.5,1.1,3.4,1.6a5.54,5.54,0,0,1,2.1,1.9,4.41,4.41,0,0,1,.8,2.8,2.49,2.49,0,0,1-.1.8,6.91,6.91,0,0,1-2.7,4.7,9.72,9.72,0,0,1-6,1.8A8.09,8.09,0,0,1,131.8,27.9Z"/><path class="cls-2" d="M158.1,14.4c-.1.1-.2.1-.4.1h-3.4a.22.22,0,0,0-.2.2L153,23.6v.7a2.07,2.07,0,0,0,.5,1.5,2.65,2.65,0,0,0,1.7.5h.8c.2,0,.3,0,.4.1s.1.2.1.4l-.2,1.8a.47.47,0,0,1-.5.5h-1.4a6.16,6.16,0,0,1-3.4-.7,3.16,3.16,0,0,1-1.2-2.7,4.59,4.59,0,0,1,.1-1l1.3-10.1a.22.22,0,0,0-.2-.2h-1.8c-.2,0-.3,0-.4-.1s-.1-.2-.1-.4l.2-1.7a.52.52,0,0,1,.2-.4c.1-.1.2-.1.4-.1h1.8a.22.22,0,0,0,.2-.2l.4-3.8a.52.52,0,0,1,.2-.4c.1-.1.2-.1.4-.1h2c.2,0,.3,0,.3.1s.1.2.1.4l-.4,3.8c0,.1,0,.2.1.2H158c.2,0,.3,0,.4.1s.1.2.1.4l-.2,1.7C158.3,14.2,158.2,14.4,158.1,14.4Z"/><path class="cls-2" d="M168.6,26.1a4.36,4.36,0,0,0,1.7-1.6.54.54,0,0,1,.4-.3.37.37,0,0,1,.3.1l1.2.9a.52.52,0,0,1,.2.4.37.37,0,0,1-.1.3,7.74,7.74,0,0,1-2.8,2.6,8.36,8.36,0,0,1-3.9,1,6.34,6.34,0,0,1-3.8-1.1,5.41,5.41,0,0,1-2.1-3.1,12.31,12.31,0,0,1-.3-2.9,14.08,14.08,0,0,1,.1-2,10.9,10.9,0,0,1,.4-2.2,7.49,7.49,0,0,1,.5-1.6,7.5,7.5,0,0,1,2.8-3.7,7.75,7.75,0,0,1,4.5-1.4c2.2,0,3.7.6,4.7,1.8s1.4,3,1.4,5.3c0,.4,0,1.3-.1,2.5a.63.63,0,0,1-.6.5H162.7a.22.22,0,0,0-.2.2c0,.6-.1,1-.1,1.2a1.7,1.7,0,0,0,.1.7,2.84,2.84,0,0,0,1.2,2.1,4.24,4.24,0,0,0,2.6.8A3.44,3.44,0,0,0,168.6,26.1Zm-3.7-10.9a3.82,3.82,0,0,0-1.5,2,7.39,7.39,0,0,0-.5,1.9c0,.1,0,.2.1.2h7.5a.22.22,0,0,0,.2-.2c0-.5.1-.9.1-1.1a3.49,3.49,0,0,0-.9-2.5,3.38,3.38,0,0,0-2.5-1A3.53,3.53,0,0,0,164.9,15.2Z"/><path class="cls-2" d="M191.1,18.4a16.2,16.2,0,0,1-.1,2.2,17.55,17.55,0,0,1-1,4.1,8.87,8.87,0,0,1-2.7,3.5,7.22,7.22,0,0,1-4.2,1.3,4.64,4.64,0,0,1-2.1-.4,3.74,3.74,0,0,1-1.5-1.3l-.1-.1-.1.1-.9,7.4a.52.52,0,0,1-.2.4c-.1.1-.2.1-.4.1h-2.2a.37.37,0,0,1-.3-.1c-.1-.1-.1-.2-.1-.4L178,12.4a.52.52,0,0,1,.2-.4c.1-.1.2-.1.4-.1h2.2c.2,0,.3,0,.4.1s.1.2.1.4l-.1.9v.1h.1a5.86,5.86,0,0,1,1.9-1.3,5.45,5.45,0,0,1,2.2-.5,5.59,5.59,0,0,1,3.8,1.2,5.47,5.47,0,0,1,1.9,3.4A16.13,16.13,0,0,0,191.1,18.4Zm-3.3,2.1a10.28,10.28,0,0,0,.1-1.7,6,6,0,0,0-.4-2.5,3,3,0,0,0-3-1.9,3.68,3.68,0,0,0-3.1,1.8,9.11,9.11,0,0,0-1.3,4.3,15.26,15.26,0,0,0-.1,1.8,6.25,6.25,0,0,0,.4,2.5,2.58,2.58,0,0,0,2.6,1.7,3.88,3.88,0,0,0,3.2-1.6A8.46,8.46,0,0,0,187.8,20.5Z"/></g><g class="cls-3"><path class="cls-2" d="M194.2,28.2a3.54,3.54,0,0,1-1.6-3v-.6a.52.52,0,0,1,.2-.4c.1-.1.2-.1.4-.1h2c.2,0,.3,0,.4.1s.1.1.1.2v.3a1.86,1.86,0,0,0,.8,1.7,3.61,3.61,0,0,0,2.4.7,4.21,4.21,0,0,0,2.6-.7,2.12,2.12,0,0,0,1-1.8,1.44,1.44,0,0,0-.8-1.3,18.11,18.11,0,0,0-2.5-1,23.87,23.87,0,0,1-2.9-1,4.5,4.5,0,0,1-1.9-1.4,4.41,4.41,0,0,1-.7-2.6,5,5,0,0,1,2-4.1,8,8,0,0,1,5-1.5,7.07,7.07,0,0,1,4.3,1.2,3.71,3.71,0,0,1,1.6,3.1v.5c0,.1-.1.2-.2.3s-.2.1-.4.1h-2a.37.37,0,0,1-.3-.1c-.1,0-.1-.1-.1-.2v-.2a1.55,1.55,0,0,0-.8-1.6,4.37,4.37,0,0,0-2.5-.7,4.63,4.63,0,0,0-2.5.6,1.86,1.86,0,0,0-1,1.7,1.72,1.72,0,0,0,.8,1.4,7.37,7.37,0,0,0,2.6,1,23.87,23.87,0,0,1,2.9,1,5.22,5.22,0,0,1,1.9,1.4,3.57,3.57,0,0,1,.8,2.3v.6a5.52,5.52,0,0,1-2.2,3.7,8.35,8.35,0,0,1-4.9,1.4A6.33,6.33,0,0,1,194.2,28.2Z"/></g></g></g></svg>