<?xml version="1.0" standalone="yes"?><svg xmlns="http://www.w3.org/2000/svg" id="Layer_1" data-name="Layer 1" viewBox="0 0 200 37.85" style="zoom: 1;"><defs><style>.cls-1{fill:none;} .cls-2{fill:#fff;} .cls-3{isolation:isolate;} .st0{fill:none;stroke:#FFFFFF;stroke-miterlimit:10;} .st1{fill:#FFFFFF;stroke:#FFFFFF;stroke-miterlimit:10;}</style></defs><title>JustWalk-logo</title><g id="Logo-White"><g id="Group-2"><rect class="cls-1" x="15.2" y="15.2" width="13" height="13" transform="translate(-8.99 21.7) rotate(-45)"></rect><rect class="cls-1" x="5.04" y="6.58" width="13" height="9.9" transform="translate(-4.77 11.54) rotate(-45)"></rect><rect class="cls-1" x="26.99" y="4.97" width="9.9" height="13" transform="translate(1.25 25.94) rotate(-45)"></rect><path class="cls-2" d="M42.8,11.2,32.2.6a1.93,1.93,0,0,0-2.8,0L21.7,8.3,14,.6a1.93,1.93,0,0,0-2.8,0L.6,11.2A1.93,1.93,0,0,0,.6,14l8.6,8.6a2.09,2.09,0,0,0,.4.6L20.2,33.8a2,2,0,0,0,1.4.6h.2a2,2,0,0,0,1.4-.6L33.8,23.2a2.09,2.09,0,0,0,.4-.6L42.8,14A1.93,1.93,0,0,0,42.8,11.2ZM12.6,3.4l7,7-9.2,9.2-7-7Zm9.1,27.5-9.2-9.2,9.2-9.2,9.2,9.2ZM33,19.6l-9.2-9.2,7-7L40,12.6Z"></path></g></g><text stroke="none" style="outline-style:none;" id="text1" stroke-width="1px" x="121.145012px" font-weight="normal" text-rendering="geometricPrecision" font-family="EuphemiaUCAS" fill="#FFFFFF" font-size="34px" y="28.305988px" transform="" text-anchor="middle">JustWalk</text></svg>