<?xml version="1.0" encoding="utf-8"?>
<!-- Generator: Adobe Illustrator 23.1.0, SVG Export Plug-In . SVG Version: 6.00 Build 0)  -->
<svg version="1.1" id="Layer_1" xmlns="http://www.w3.org/2000/svg" xmlns:xlink="http://www.w3.org/1999/xlink" x="0px" y="0px"
	 viewBox="0 0 45.9 37.8" style="enable-background:new 0 0 45.9 37.8;" xml:space="preserve">
<style type="text/css">
	.st0{fill:none;stroke:#FFFFFF;stroke-miterlimit:10;}
	.st1{fill:#FFFFFF;stroke:#FFFFFF;stroke-miterlimit:10;}
</style>
<title>JustWalk-logo</title>
<g id="Group-2">
	<rect x="16.2" y="17.2" transform="matrix(0.7071 -0.7071 0.7071 0.7071 -10.1102 22.9918)" class="st0" width="13" height="13"/>
	<rect x="6" y="8.6" transform="matrix(0.7071 -0.7071 0.7071 0.7071 -5.8955 12.8329)" class="st0" width="13" height="9.9"/>
	<rect x="28" y="7" transform="matrix(0.7071 -0.7071 0.7071 0.7071 0.128 27.24)" class="st0" width="9.9" height="13"/>
	<path class="st1" d="M43.8,13.2L33.2,2.6c-0.7-0.8-2-0.8-2.7-0.1c0,0,0,0-0.1,0.1l-7.7,7.7L15,2.6c-0.7-0.8-2-0.8-2.7-0.1
		c0,0,0,0-0.1,0.1L1.6,13.2c-0.8,0.7-0.8,2-0.1,2.7c0,0,0,0,0.1,0.1l8.6,8.6c0.1,0.2,0.2,0.4,0.4,0.6l10.6,10.6
		c0.4,0.4,0.9,0.6,1.4,0.6h0.2c0.5,0,1-0.2,1.4-0.6l10.6-10.6c0.2-0.2,0.3-0.4,0.4-0.6l8.6-8.6C44.6,15.3,44.6,14,43.8,13.2
		C43.8,13.2,43.8,13.2,43.8,13.2z M13.6,5.4l7,7l-9.2,9.2l-7-7L13.6,5.4z M22.7,32.9l-9.2-9.2l9.2-9.2l9.2,9.2L22.7,32.9z M34,21.6
		l-9.2-9.2l7-7l9.2,9.2L34,21.6z"/>
</g>
</svg>
