<?xml version="1.0" encoding="utf-8"?>
<!-- Generator: Adobe Illustrator 26.0.2, SVG Export Plug-In . SVG Version: 6.00 Build 0)  -->
<svg version="1.1" id="Layer_1" xmlns="http://www.w3.org/2000/svg" xmlns:xlink="http://www.w3.org/1999/xlink" x="0px" y="0px"
	 viewBox="0 0 230 37.8" style="enable-background:new 0 0 230 37.8;" xml:space="preserve">
<style type="text/css">
	.st0{fill:none;}
	.st1{fill:#FFFFFF;}
	.st2{enable-background:new    ;}
</style>
<g id="Logo-White_00000156571499986684498040000008427734562264290731_">
	<g id="Group-2_00000117657751504490802520000003419798591758922372_">
		<rect x="22.3" y="16.9" transform="matrix(0.7071 -0.7071 0.7071 0.7071 -8.128 27.2289)" class="st0" width="13" height="13"/>
		<rect x="12.1" y="8.3" transform="matrix(0.7071 -0.7071 0.7071 0.7071 -3.9132 17.07)" class="st0" width="13" height="9.9"/>
		<rect x="34.1" y="6.7" transform="matrix(0.7071 -0.7071 0.7071 0.7071 2.1102 31.477)" class="st0" width="9.9" height="13"/>
		<path class="st1" d="M49.9,12.9L39.3,2.3c-0.7-0.8-2-0.8-2.7-0.1c0,0,0,0-0.1,0.1L28.8,10l-7.7-7.7c-0.7-0.8-2-0.8-2.7-0.1
			c0,0,0,0-0.1,0.1L7.7,12.9c-0.8,0.7-0.8,2-0.1,2.7c0,0,0,0,0.1,0.1l8.6,8.6c0.1,0.2,0.2,0.4,0.4,0.6l10.6,10.6
			c0.4,0.4,0.9,0.6,1.4,0.6h0.2c0.5,0,1-0.2,1.4-0.6l10.6-10.6c0.2-0.2,0.3-0.4,0.4-0.6l8.6-8.6C50.7,15,50.7,13.8,49.9,12.9
			C50,13,49.9,12.9,49.9,12.9z M19.7,5.1l7,7l-9.2,9.2l-7-7L19.7,5.1z M28.8,32.6l-9.2-9.2l9.2-9.2l9.2,9.2L28.8,32.6z M40.1,21.3
			l-9.2-9.2l7-7l9.2,9.2L40.1,21.3z"/>
	</g>
</g>
<g id="JustWalk-Text" text-rendering="geometricPrecision" class="st2">
	<path class="st1" d="M74.6,25.5c-0.4,1.1-0.9,2.1-1.6,3c-0.7,0.9-1.6,1.6-2.8,2.2c-1.2,0.6-2.7,0.9-4.5,0.9c-2.2,0-4.1-0.5-5.6-1.6
		s-2.5-2.6-3.1-4.5l7.2-2.5c0.1,0.4,0.2,0.7,0.5,1c0.2,0.3,0.6,0.4,1.1,0.4c0.5,0,0.9-0.2,1.1-0.6c0.2-0.4,0.4-0.9,0.5-1.5l2.8-15.5
		h7.9l-2.8,15.4C75.2,23.3,74.9,24.4,74.6,25.5z"/>
	<path class="st1" d="M96.7,29.1c-0.1,0.7-0.2,1.3-0.2,1.8h-7.3c0-0.3,0.1-0.7,0.1-1.2c0-0.4,0.1-0.8,0.1-1.1h-0.1
		c-0.5,0.7-1.3,1.4-2.2,1.9c-0.9,0.5-2,0.8-3.1,0.8c-1,0-1.8-0.1-2.5-0.4c-0.7-0.3-1.3-0.7-1.7-1.2c-0.4-0.5-0.8-1-1-1.7
		c-0.2-0.6-0.3-1.3-0.3-2c0-0.4,0-0.7,0.1-1.1c0-0.4,0.1-0.8,0.2-1.1L80.5,13h7.6l-1.7,9.5c0,0.2-0.1,0.4-0.1,0.6c0,0.2,0,0.4,0,0.5
		c0,0.5,0.1,0.8,0.4,1.1c0.2,0.3,0.6,0.4,1.2,0.4c0.5,0,1-0.2,1.4-0.7c0.4-0.5,0.7-1.1,0.8-2l1.7-9.5h7.6L97,27.4
		C96.9,27.8,96.8,28.4,96.7,29.1z"/>
	<path class="st1" d="M102.6,24.4c0.6,0.6,1.3,1,2,1.3c0.8,0.3,1.5,0.4,2.1,0.4c0.5,0,0.8-0.1,1.1-0.2c0.3-0.1,0.4-0.3,0.4-0.6
		c0-0.3-0.2-0.5-0.5-0.7c-0.4-0.2-0.8-0.4-1.3-0.5c-0.8-0.2-1.5-0.5-2.1-0.8c-0.6-0.3-1.2-0.6-1.6-1.1s-0.8-0.9-1-1.4
		c-0.2-0.5-0.4-1.2-0.4-1.9c0-1.1,0.2-2.1,0.7-2.9c0.5-0.8,1.1-1.5,1.9-2.1c0.8-0.5,1.7-1,2.7-1.2c1-0.3,2-0.4,3-0.4
		c1.4,0,2.8,0.2,4.1,0.6c1.3,0.4,2.4,1,3.2,1.7l-3.9,4.5c-0.4-0.4-0.9-0.8-1.6-1c-0.7-0.3-1.3-0.4-2-0.4c-0.5,0-0.8,0.1-1.1,0.2
		c-0.3,0.1-0.4,0.3-0.4,0.6c0,0.2,0.1,0.4,0.4,0.5c0.2,0.1,0.7,0.3,1.2,0.4c0.8,0.2,1.6,0.5,2.3,0.8c0.7,0.3,1.3,0.7,1.8,1.1
		c0.5,0.4,0.9,0.9,1.2,1.5c0.3,0.6,0.4,1.3,0.4,2.1c0,1.2-0.3,2.2-0.8,3.1s-1.2,1.5-2,2c-0.8,0.5-1.7,0.9-2.8,1.1
		c-1,0.2-2,0.3-3,0.3c-1.3,0-2.7-0.2-4.1-0.5c-1.4-0.4-2.7-1-3.8-1.9L102.6,24.4z"/>
	<path class="st1" d="M126.9,18.5l-0.9,5c0,0.1,0,0.3-0.1,0.5c0,0.2,0,0.3,0,0.4c0,0.5,0.1,0.9,0.4,1c0.3,0.2,0.6,0.3,1.1,0.3
		c0.3,0,0.5,0,0.8-0.1c0.3,0,0.5-0.1,0.7-0.1l-0.9,5.2c-0.3,0.2-0.8,0.3-1.6,0.4s-1.5,0.2-2.2,0.2c-0.7,0-1.5-0.1-2.2-0.2
		c-0.7-0.1-1.4-0.4-1.9-0.7c-0.6-0.3-1-0.8-1.4-1.4c-0.4-0.6-0.5-1.3-0.5-2.3c0-0.2,0-0.5,0.1-0.8c0-0.3,0.1-0.6,0.1-0.9l1.2-6.6
		h-2.7l1-5.5h2.5l0.7-4h7.4l-0.7,4h3.4l-1,5.5H126.9z"/>
	<path class="st1" d="M157.9,30.9h-8.1L149.2,17H149l-6.3,13.9h-8l-1.9-24.1h8.3v13.8h0.1l5.6-13.8h8.1l0.3,13.8h0.1l5.6-13.8h8.2
		L157.9,30.9z"/>
	<path class="st1" d="M182.9,28.1c-0.1,0.5-0.2,1-0.2,1.5c0,0.5-0.1,0.9-0.1,1.2h-6.5c0-0.2,0-0.4,0-0.8c0-0.4,0-0.6,0.1-0.9h-0.1
		c-0.7,0.7-1.4,1.3-2.2,1.6c-0.8,0.3-1.8,0.5-2.8,0.5c-0.6,0-1.3-0.1-1.9-0.3c-0.6-0.2-1.2-0.5-1.7-0.8s-0.9-0.9-1.2-1.5
		s-0.5-1.3-0.5-2.2c0-1.4,0.3-2.5,0.9-3.4s1.5-1.6,2.5-2.1c1.1-0.5,2.3-0.9,3.7-1.1c1.4-0.2,2.8-0.3,4.4-0.3c0-0.1,0-0.2,0-0.2
		c0-0.1,0-0.1,0-0.2c0-0.5-0.2-0.8-0.6-1s-0.9-0.4-1.5-0.4c-0.7,0-1.4,0.1-2.1,0.4c-0.7,0.3-1.3,0.7-1.9,1.1l-3.3-3.8
		c0.5-0.5,1.2-1,1.9-1.4c0.7-0.4,1.4-0.7,2.1-1c0.7-0.3,1.5-0.5,2.2-0.6c0.7-0.1,1.5-0.2,2.1-0.2c2.7,0,4.8,0.5,6.1,1.6
		c1.4,1.1,2.1,2.6,2.1,4.6c0,0.8-0.1,1.8-0.3,2.8L182.9,28.1z M177,23.6h-0.4c-0.6,0-1.1,0-1.6,0.1c-0.5,0.1-0.9,0.2-1.3,0.3
		s-0.7,0.3-0.9,0.6s-0.3,0.5-0.3,0.9c0,0.5,0.2,0.9,0.5,1c0.3,0.1,0.7,0.2,1.1,0.2c0.7,0,1.4-0.2,1.9-0.7c0.5-0.5,0.9-1.1,1-1.8
		L177,23.6z"/>
	<path class="st1" d="M185.5,30.9l4.5-25.7h7.8l-4.5,25.7H185.5z"/>
	<path class="st1" d="M206,23.1l-1.3,7.8H197l4.5-25.7h7.6l-2.7,14.7h0.1l5-6.8h9.3l-7.3,8.5l4.4,9.4h-8.9l-3.1-7.8H206z"/>
</g>
</svg>
