<svg xmlns="http://www.w3.org/2000/svg" viewBox="0 0 28 23.7"><defs><style>.cls-1{fill:#979797;}</style></defs><title>library</title><g id="Layer_2" data-name="Layer 2"><g id="Layer_1-2" data-name="Layer 1"><path class="cls-1" d="M26.2,1.9V0H15.8A2.23,2.23,0,0,0,14,1a2.23,2.23,0,0,0-1.8-1H1.8V1.9H0V21.8H11.4a2.73,2.73,0,0,0,5.2,0H28V1.9Zm-11.7.5A1.37,1.37,0,0,1,15.9,1h9.5V19H14.6V2.4ZM2.7.9h9.5a1.43,1.43,0,0,1,1.4,1.4V19H2.8V.9ZM27.1,20.8H15.8s0,1.9-1.8,1.9-1.8-1.9-1.8-1.9H.9V2.8h.9V19.9H26.2V2.8h.9v18Z"/><rect id="Rectangle-path" class="cls-1" x="4" y="5" width="8.6" height="1.1"/><rect id="Rectangle-path-Copy" class="cls-1" x="15.7" y="5" width="8.2" height="1.1"/><rect class="cls-1" x="4" y="9" width="8.6" height="1.1"/><rect id="Rectangle-path-Copy-2" class="cls-1" x="15.7" y="9" width="8.2" height="1.1"/><rect class="cls-1" x="4" y="13" width="8.6" height="1.1"/><rect id="Rectangle-path-Copy-3" class="cls-1" x="15.7" y="13" width="8.2" height="1"/></g></g></svg>