<svg xmlns="http://www.w3.org/2000/svg" viewBox="0 0 24 23.9"><defs><style>.cls-1{fill:#979797;}</style></defs><title>planning</title><g id="Layer_2" data-name="Layer 2"><g id="Layer_1-2" data-name="Layer 1"><path id="Shape" class="cls-1" d="M5.9,0a.67.67,0,0,0-.6.7v1H2a2,2,0,0,0-2,2V21.9a2,2,0,0,0,2,2H22a2,2,0,0,0,2-2V3.8a2,2,0,0,0-2-2H18.7V.8a.76.76,0,0,0-.2-.5A.76.76,0,0,0,18,.1a.67.67,0,0,0-.6.7v1H6.7V.8A.76.76,0,0,0,6.5.3.86.86,0,0,0,5.9,0ZM2,3.1H5.3v1a.71.71,0,0,0,.3.6.85.85,0,0,0,.7,0,.71.71,0,0,0,.3-.6v-1H17.3v1a.71.71,0,0,0,.3.6.85.85,0,0,0,.7,0,.71.71,0,0,0,.3-.6v-1h3.3a.68.68,0,0,1,.7.7v2H1.3v-2A.68.68,0,0,1,2,3.1ZM1.3,7H22.6V21.9a.68.68,0,0,1-.7.7H1.9a.68.68,0,0,1-.7-.7V7ZM8,11.5a1.75,1.75,0,0,0-1.7,1.7A1.69,1.69,0,0,0,8,14.9a1.7,1.7,0,0,0,0-3.4Zm4,.7a1,1,0,0,0-1,1,.94.94,0,0,0,1,1,1,1,0,0,0,1-1A.94.94,0,0,0,12,12.2Zm4,0a1,1,0,0,0-1,1,.94.94,0,0,0,1,1,1,1,0,0,0,1-1A.94.94,0,0,0,16,12.2Zm4,0a1,1,0,0,0-1,1,.94.94,0,0,0,1,1,1,1,0,0,0,1-1A.94.94,0,0,0,20,12.2ZM4,16.6a1,1,0,1,0,1,1A1,1,0,0,0,4,16.6Zm4,0a1,1,0,1,0,1,1A1,1,0,0,0,8,16.6Zm4,0a1,1,0,1,0,1,1A1,1,0,0,0,12,16.6Zm4.4,0a1,1,0,1,0,1,1A1.08,1.08,0,0,0,16.4,16.6Zm3.8,0a1,1,0,1,0,1,1A1,1,0,0,0,20.2,16.6Z"/></g></g></svg>