<svg xmlns="http://www.w3.org/2000/svg" viewBox="0 0 30 22.66"><defs><style>.cls-1{fill:#4a4a4a;}</style></defs><title>Swim</title><g id="Layer_2" data-name="Layer 2"><g id="Layer_1-2" data-name="Layer 1"><g id="Swim"><g id="noun_1209834_cc" data-name="noun 1209834 cc"><g id="Group"><path id="Shape" class="cls-1" d="M26.5,14.5a5.6,5.6,0,0,1-3.23-1.07,4.23,4.23,0,0,0-5,0,5.43,5.43,0,0,1-6.46,0,4.23,4.23,0,0,0-5,0,5.43,5.43,0,0,1-6.46,0,.65.65,0,0,1-.16-.89A.62.62,0,0,1,1,12.38a4.23,4.23,0,0,0,5,0,5.4,5.4,0,0,1,6.46,0,4.23,4.23,0,0,0,5,0,5.4,5.4,0,0,1,6.46,0,4.23,4.23,0,0,0,5,0,.62.62,0,0,1,.87.16.65.65,0,0,1-.16.89A5.6,5.6,0,0,1,26.5,14.5Z"/><path class="cls-1" d="M26.5,18.58a5.6,5.6,0,0,1-3.23-1.07,4.23,4.23,0,0,0-5,0,5.4,5.4,0,0,1-6.46,0,4.23,4.23,0,0,0-5,0,5.4,5.4,0,0,1-6.46,0,.65.65,0,0,1-.16-.89A.62.62,0,0,1,1,16.46a4.23,4.23,0,0,0,5,0,5.4,5.4,0,0,1,6.46,0,4.23,4.23,0,0,0,5,0,5.4,5.4,0,0,1,6.46,0,4.23,4.23,0,0,0,5,0,.62.62,0,0,1,.87.16.65.65,0,0,1-.16.89A5.6,5.6,0,0,1,26.5,18.58Z"/><path class="cls-1" d="M26.5,22.66a5.53,5.53,0,0,1-3.23-1.07,4.23,4.23,0,0,0-5,0,5.4,5.4,0,0,1-6.46,0,4.23,4.23,0,0,0-5,0,5.4,5.4,0,0,1-6.46,0,.65.65,0,0,1-.16-.89A.62.62,0,0,1,1,20.54a4.23,4.23,0,0,0,5,0,5.4,5.4,0,0,1,6.46,0,4.23,4.23,0,0,0,5,0,5.4,5.4,0,0,1,6.46,0,4.23,4.23,0,0,0,5,0,.62.62,0,0,1,.87.16.65.65,0,0,1-.16.89A5.53,5.53,0,0,1,26.5,22.66Z"/><path class="cls-1" d="M27,10.3a3.06,3.06,0,1,1,3-3.05A3,3,0,0,1,27,10.3Zm0-4.83a1.78,1.78,0,1,0,1.74,1.78A1.76,1.76,0,0,0,27,5.47Z"/><path class="cls-1" d="M15.05,14.5A5.16,5.16,0,0,1,12,13.43a3.82,3.82,0,0,0-4-.49.57.57,0,0,1-.76-.32.65.65,0,0,1,.25-.83l9.13-5.37L15.3,4.07a2,2,0,0,1-.11-1.79,1.81,1.81,0,0,1,1.33-1.1L22.81,0a1.79,1.79,0,0,1,2.06,1.56,1.91,1.91,0,0,1-1.46,2.22l-3.67.67,5.07,8.66a.67.67,0,0,1,0,.75.58.58,0,0,1-.68.18,5.2,5.2,0,0,1-1.14-.64,3.89,3.89,0,0,0-4.81,0A5.16,5.16,0,0,1,15.05,14.5Zm-4.46-3.07a5.31,5.31,0,0,1,2.05,1,3.89,3.89,0,0,0,4.81,0,4.92,4.92,0,0,1,5.15-.61L18.25,4.35a.7.7,0,0,1,0-.6.64.64,0,0,1,.45-.37l4.55-.83a.65.65,0,0,0,.49-.74A.6.6,0,0,0,23,1.29L16.72,2.44a.59.59,0,0,0-.44.37.65.65,0,0,0,0,.59L18,6.32a.67.67,0,0,1,.07.5.62.62,0,0,1-.29.4Z"/></g></g></g></g></g></svg>