<svg xmlns="http://www.w3.org/2000/svg" viewBox="0 0 28.43 29.3"><defs><style>.cls-1{fill:#4a4a4a;fill-rule:evenodd;}</style></defs><title>walk-gray</title><g id="Layer_2" data-name="Layer 2"><g id="Layer_1-2" data-name="Layer 1"><g id="walk-gray"><path id="Fill-1" class="cls-1" d="M19.12,18.81c.19.26,2.23,2.85,3.49,4.44a.56.56,0,0,1,.07.62L21.09,27a.59.59,0,0,0,0,.47.62.62,0,0,0,.34.35.68.68,0,0,0,.88-.3l1.93-3.82a.6.6,0,0,0-.07-.63l-3.84-4.81-.06-.06a.58.58,0,0,1-.18-.44l.31-6.85a.64.64,0,0,1,.28-.47.69.69,0,0,1,.58-.08l1.11.32a.69.69,0,0,0,.56-.07l3.86-2.75a.62.62,0,0,0,.33-.42A.57.57,0,0,0,27,7a.71.71,0,0,0-.91-.18L22.76,9.26a.73.73,0,0,1-.61.1L12.09,6.42a.71.71,0,0,0-.62.11L7.8,9.29a.59.59,0,0,0-.1.87.69.69,0,0,0,.93.09L11.75,7.9a.67.67,0,0,1,.61-.1l2.35.68a.62.62,0,0,1,.46.61l-.43,9.64a.59.59,0,0,1-.07.25l-1.78,3.24a.69.69,0,0,1-.24.24L8.83,24.64a.59.59,0,0,0-.21.85.7.7,0,0,0,.91.2l4.13-2.36a.64.64,0,0,0,.25-.24c.95-1.8,2-3.82,2.13-4.16a.61.61,0,0,1,.18-.32.66.66,0,0,1,.48-.17l1.88.06a.65.65,0,0,1,.54.31m2.57,10.32a2.12,2.12,0,0,1-.83-.17,1.89,1.89,0,0,1-1-1,1.71,1.71,0,0,1,.06-1.4l1.43-2.84c-2-2.49-2.79-3.53-3.13-4l-1.08,0c-.26.56-.82,1.67-2.05,4a1.87,1.87,0,0,1-.72.73l-4.13,2.36a2.1,2.1,0,0,1-1,.27,2,2,0,0,1-1.68-.87,1.77,1.77,0,0,1,.65-2.53l3.66-2.09,1.63-3,.4-9L12.3,9.06,9.45,11.2a2.09,2.09,0,0,1-2.77-.27A1.76,1.76,0,0,1,7,8.34l3.67-2.76a2.08,2.08,0,0,1,1.84-.32L22.22,8.1l3.11-2.27a2.13,2.13,0,0,1,1.54-.29,2,2,0,0,1,1.24.8,1.7,1.7,0,0,1,.28,1.38,1.83,1.83,0,0,1-.86,1.16l-3.87,2.76a2.11,2.11,0,0,1-1.7.24l-.3-.09-.27,5.81,3.81,4.78a1.73,1.73,0,0,1,.2,1.87l-1.92,3.82a2,2,0,0,1-1.79,1.06"/><path id="Fill-3" class="cls-1" d="M19.6,1.21A1.6,1.6,0,0,0,18,2.74a1.65,1.65,0,0,0,3.3,0A1.6,1.6,0,0,0,19.6,1.21m0,4.27a2.86,2.86,0,0,1-3-2.74A2.86,2.86,0,0,1,19.6,0a2.86,2.86,0,0,1,3,2.74,2.86,2.86,0,0,1-3,2.74"/><path id="Fill-5" class="cls-1" d="M11.53,29.3H6.87a.69.69,0,0,1,0-1.37h4.66a.69.69,0,0,1,0,1.37"/><path id="Fill-7" class="cls-1" d="M4.56,26.2H.62A.66.66,0,0,1,0,25.51a.65.65,0,0,1,.62-.68H4.56a.65.65,0,0,1,.62.68.66.66,0,0,1-.62.69"/></g></g></g></svg>