<svg xmlns="http://www.w3.org/2000/svg" viewBox="0 0 30 15.36"><defs><style>.cls-1{fill:#4a4a4a;fill-rule:evenodd;}</style></defs><title>Weights</title><g id="Layer_2" data-name="Layer 2"><g id="Layer_1-2" data-name="Layer 1"><g id="Weights"><g id="Group-13"><path id="Fill-1" class="cls-1" d="M4.38,3.64a.63.63,0,0,0-.63.63v6.82a.63.63,0,0,0,.63.63H5a.63.63,0,0,0,.63-.63V4.27A.63.63,0,0,0,5,3.64ZM5,13H4.38A1.88,1.88,0,0,1,2.5,11.09V4.27A1.88,1.88,0,0,1,4.38,2.39H5A1.88,1.88,0,0,1,6.88,4.27v6.82A1.88,1.88,0,0,1,5,13Z"/><path id="Fill-3" class="cls-1" d="M7.5,1.25a.63.63,0,0,0-.62.63v11.6a.63.63,0,0,0,.62.63h.63a.63.63,0,0,0,.62-.63V1.88a.63.63,0,0,0-.62-.63Zm.63,14.11H7.5a1.88,1.88,0,0,1-1.87-1.88V1.88A1.88,1.88,0,0,1,7.5,0h.63A1.88,1.88,0,0,1,10,1.88v11.6A1.88,1.88,0,0,1,8.13,15.36Z"/><path id="Fill-5" class="cls-1" d="M25,3.64a.63.63,0,0,0-.62.63v6.82a.63.63,0,0,0,.62.63h.63a.63.63,0,0,0,.62-.63V4.27a.63.63,0,0,0-.62-.63ZM25.63,13H25a1.88,1.88,0,0,1-1.87-1.88V4.27A1.88,1.88,0,0,1,25,2.39h.63A1.88,1.88,0,0,1,27.5,4.27v6.82A1.88,1.88,0,0,1,25.63,13Z"/><path id="Fill-7" class="cls-1" d="M21.88,1.25a.63.63,0,0,0-.63.63v11.6a.63.63,0,0,0,.63.63h.62a.63.63,0,0,0,.63-.63V1.88a.63.63,0,0,0-.63-.63Zm.62,14.11h-.62A1.88,1.88,0,0,1,20,13.48V1.88A1.88,1.88,0,0,1,21.88,0h.62a1.88,1.88,0,0,1,1.88,1.88v11.6A1.88,1.88,0,0,1,22.5,15.36Z"/><path id="Fill-9" class="cls-1" d="M10,8.3H20V7.05H10ZM20.63,9.55H9.38a.63.63,0,0,1-.63-.62V6.43a.63.63,0,0,1,.63-.63H20.63a.63.63,0,0,1,.62.63v2.5A.62.62,0,0,1,20.63,9.55Z"/><path id="Fill-11" class="cls-1" d="M27.5,8.3h.63a.63.63,0,0,0,0-1.25H27.5Zm.63,1.25H26.88a.63.63,0,0,1-.63-.62V6.43a.63.63,0,0,1,.63-.63h1.25a1.88,1.88,0,0,1,0,3.75Z"/><path id="Fill-12" class="cls-1" d="M1.88,7.05a.63.63,0,1,0,0,1.25H2.5V7.05Zm1.25,2.5H1.88a1.88,1.88,0,1,1,0-3.75H3.13a.63.63,0,0,1,.62.63v2.5A.62.62,0,0,1,3.13,9.55Z"/></g></g></g></g></svg>